<svg width="395" height="93" viewBox="0 0 395 93" fill="none" xmlns="http://www.w3.org/2000/svg">
<path d="M14.6382 37.3046C16.5203 34.5146 19.0994 32.2478 22.3756 30.504C25.7215 28.7603 29.5204 27.8884 33.7725 27.8884C38.7216 27.8884 43.1828 29.109 47.156 31.5503C51.199 33.9915 54.3706 37.479 56.6709 42.0128C59.0409 46.4768 60.2259 51.6731 60.2259 57.6019C60.2259 63.5306 59.0409 68.7968 56.6709 73.4003C54.3706 77.934 51.199 81.4564 47.156 83.9674C43.1828 86.4784 38.7216 87.7339 33.7725 87.7339C29.4507 87.7339 25.6518 86.8969 22.3756 85.2229C19.1691 83.4791 16.59 81.2471 14.6382 78.5269V86.7923H0V9.36977H14.6382V37.3046ZM45.274 57.6019C45.274 54.1144 44.5421 51.1151 43.0782 48.6041C41.6841 46.0234 39.8021 44.0704 37.4321 42.7451C35.1445 41.4232 32.5454 40.7369 29.9038 40.7573C27.255 40.7573 24.7456 41.4548 22.3756 42.8498C20.0753 44.175 18.1932 46.128 16.7294 48.7088C15.3353 51.2895 14.6382 54.3236 14.6382 57.8111C14.6382 61.2986 15.3353 64.3328 16.7294 66.9135C18.1932 69.4943 20.0753 71.4821 22.3756 72.8771C24.7456 74.2024 27.255 74.865 29.9038 74.865C32.6224 74.865 35.1318 74.1675 37.4321 72.7725C39.8021 71.3775 41.6841 69.3896 43.0782 66.8089C44.5421 64.2281 45.274 61.1591 45.274 57.6019ZM78.2855 21.9248C75.7064 21.9248 73.5455 21.1226 71.8029 19.5184C70.1299 17.8444 69.2935 15.7868 69.2935 13.3455C69.2935 10.9043 70.1299 8.88152 71.8029 7.27727C73.5455 5.60327 75.7064 4.76627 78.2855 4.76627C80.8646 4.76627 82.9907 5.60327 84.6636 7.27727C86.4063 8.88152 87.2776 10.9043 87.2776 13.3455C87.2776 15.7868 86.4063 17.8444 84.6636 19.5184C82.9907 21.1226 80.8646 21.9248 78.2855 21.9248ZM85.5001 28.83V86.7923H70.8618V28.83H85.5001ZM134.259 86.7923L114.602 62.1008V86.7923H99.964V9.36977H114.602V53.4169L134.05 28.83H153.08L127.568 57.9158L153.289 86.7923H134.259ZM154.355 57.8111C154.355 51.8126 155.575 46.5814 158.015 42.1174C160.454 37.5836 163.835 34.0961 168.157 31.6549C172.478 29.1439 177.428 27.8884 183.004 27.8884C190.184 27.8884 196.109 29.7019 200.779 33.3289C205.519 36.8861 208.691 41.9081 210.294 48.3949H194.508C193.672 45.8839 192.243 43.9309 190.222 42.5359C188.27 41.0711 185.83 40.3388 182.902 40.3388C178.72 40.3388 175.409 41.8733 172.969 44.9423C170.53 47.9415 169.31 52.2311 169.31 57.8111C169.31 63.3214 170.53 67.611 172.969 70.68C175.409 73.6793 178.72 75.1789 182.902 75.1789C188.827 75.1789 192.696 72.5284 194.508 67.2274H210.297C208.694 73.5049 205.522 78.492 200.782 82.1888C196.042 85.8855 190.117 87.7339 183.007 87.7339C177.431 87.7339 172.481 86.5133 168.16 84.072C163.872 81.5965 160.36 77.9732 158.017 73.6095C155.578 69.0758 154.355 63.8096 154.355 57.8111ZM232.754 37.8278C234.549 34.8445 237.066 32.3617 240.073 30.6086C243.14 28.8649 246.625 27.993 250.529 27.993V43.3729H246.66C242.059 43.3729 238.574 44.454 236.204 46.6163C233.904 48.7785 232.754 52.545 232.754 57.9158V86.7923H218.116V28.83H232.754V37.8278ZM341.132 40.8619V86.7923H326.285V40.8619H319.697V28.83H326.285V25.9005C326.285 18.786 328.306 13.5548 332.349 10.2068C336.392 6.85877 342.491 5.28939 350.647 5.49864V17.8444C347.092 17.7746 344.617 18.3675 343.223 19.623C341.829 20.8785 341.132 23.1454 341.132 26.4236V28.83H360.156V14.4964H374.899V28.83H387.864V40.8619H374.899V68.9014C374.899 70.8544 375.352 72.2843 376.258 73.191C377.234 74.028 378.837 74.4465 381.068 74.4465H387.864V86.7923H378.663C366.325 86.7923 360.156 80.7938 360.156 68.7968V40.8619H341.132Z" fill="white"/>
<path d="M274.559 50.6045L255 82.272L284.538 82.7873M274.559 50.6045L284.559 34.501L312.161 83.2692L293.426 82.9424L274.559 50.6045Z" stroke="white" stroke-width="8"/>
</svg>
